<svg xmlns="http://www.w3.org/2000/svg" viewBox="0 0 24 24" role="img" aria-label="Lloyds Bank">
  <rect width="24" height="24" rx="4" fill="#006a4d"/>
  <path fill="#fff" d="M6.2 16.2c1.8-2.1 3.1-4.4 3.8-6.9.3-1.1.4-2 .4-2.7 0-.5-.1-.9-.3-1.2-.2-.3-.5-.5-1-.5-.8 0-1.4.5-1.8 1.5-.5 1.2-.9 2.6-1.2 4.2h-1.6c.4-2.2 1-4 1.7-5.4.9-1.7 2.1-2.6 3.6-2.6 1 0 1.7.3 2.2.9.5.6.8 1.4.8 2.4 0 .9-.2 1.9-.5 3-.6 2.3-1.6 4.4-3 6.3h-2z"/>
  <path fill="#9fd4b8" d="M14.5 7.8c1.4 0 2.4.7 3 2.1.5 1.1.8 2.5.8 4.1h-1.5c0-1.3-.2-2.4-.6-3.3-.5-1.1-1.2-1.6-2.2-1.6-.9 0-1.6.5-2.1 1.4-.4.7-.7 1.7-.9 2.9h-1.4c.3-2.2 1-3.8 2.1-4.9.7-.5 1.5-.7 2.4-.7z"/>
  <text x="12" y="22" text-anchor="middle" fill="#e8f5ee" font-family="Arial,Helvetica,sans-serif" font-size="4.2" font-weight="800">LLOYDS</text>
</svg>
